<svg enable-background="new 0 0 960 960" height="392.818" width="853.182" xmlns="http://www.w3.org/2000/svg"><rect fill="none" height="100%" width="100%"/><g fill="#ff7a18"><path d="m120.27272396 291.41964107h-24v-49h-44.9v49h-24.1v-113.5h24.1v44.5h44.9v-44.5h24z"/><path d="m221.97272396 247.81964107c0 14.1-3.7 25.2-11.2 33.1-7.5 8-17.8 12-31.1 12-8.3 0-15.7-1.8-22-5.5-6.4-3.6-11.3-8.9-14.7-15.7s-5.1-14.8-5.1-23.9c0-14.2 3.7-25.2 11.1-33.1s17.8-11.8 31.2-11.8c8.3 0 15.7 1.8 22 5.4 6.4 3.6 11.3 8.8 14.7 15.6 3.3 6.9 5.1 14.8 5.1 23.9zm-60.1 0c0 8.6 1.4 15.1 4.2 19.5s7.4 6.6 13.8 6.6c6.3 0 10.9-2.2 13.6-6.6 2.8-4.4 4.2-10.9 4.2-19.5s-1.4-15-4.2-19.3-7.4-6.4-13.7-6.4-10.9 2.1-13.7 6.4c-2.8 4.2-4.2 10.7-4.2 19.3z"/><path d="m315.17272396 291.41964107h-23.7v-50.7c0-6.3-1-11-3.1-14.1s-5.4-4.7-9.9-4.7c-6.1 0-10.5 2.2-13.2 6.7s-4.1 11.8-4.1 22v40.8h-23.7v-86.8h18.1l3.2 11.1h1.3c2.3-4 5.7-7.1 10.1-9.4 4.4-2.2 9.4-3.4 15.1-3.4 13 0 21.8 4.2 26.4 12.7h2.1c2.3-4 5.8-7.2 10.3-9.4s9.6-3.3 15.3-3.3c9.8 0 17.3 2.5 22.3 7.6 5 5 7.6 13.1 7.6 24.3v56.6h-23.8v-50.7c0-6.3-1-11-3.1-14.1s-5.4-4.7-9.9-4.7c-5.8 0-10.1 2.1-13 6.2s-4.3 10.7-4.3 19.7z"/><path d="m428.97272396 292.91964107c-14 0-24.9-3.9-32.8-11.6s-11.8-18.6-11.8-32.8c0-14.5 3.6-25.8 10.9-33.7s17.3-11.9 30.2-11.9c12.3 0 21.8 3.5 28.6 10.5s10.2 16.6 10.2 29v11.5h-56c.3 6.7 2.3 12 6 15.8s9 5.7 15.7 5.7c5.2 0 10.2-.5 14.8-1.6 4.7-1.1 9.5-2.8 14.6-5.2v18.3c-4.1 2.1-8.6 3.6-13.3 4.6-4.6.9-10.4 1.4-17.1 1.4zm-3.4-73.1c-5 0-9 1.6-11.8 4.8s-4.5 7.7-4.9 13.5h33.2c-.1-5.8-1.6-10.4-4.6-13.5-2.9-3.2-6.9-4.8-11.9-4.8z"/></g><g fill="#9fde26"><path d="m529.67272396 196.31964107c-9.1 0-16.1 3.4-21 10.2-5 6.8-7.5 16.3-7.5 28.5 0 25.3 9.5 38 28.5 38 8 0 17.6-2 29-6v20.2c-9.3 3.9-19.7 5.8-31.2 5.8-16.5 0-29.1-5-37.9-15-8.7-10-13.1-24.4-13.1-43.1 0-11.8 2.1-22.1 6.4-31s10.5-15.7 18.5-20.4 17.5-7.1 28.3-7.1c11 0 22.1 2.7 33.2 8l-7.8 19.6c-4.2-2-8.5-3.8-12.8-5.3-4.2-1.7-8.4-2.4-12.6-2.4z"/><path d="m657.07272396 291.41964107h-23.7v-50.7c0-12.5-4.7-18.8-14-18.8-6.6 0-11.4 2.2-14.4 6.8-3 4.5-4.4 11.8-4.4 21.9v40.8h-23.7v-120.8h23.7v24.6c0 1.9-.2 6.4-.5 13.5l-.5 7h1.2c5.3-8.5 13.7-12.7 25.2-12.7 10.2 0 17.9 2.7 23.2 8.2s7.9 13.4 7.9 23.6z"/><path d="m716.77272396 292.91964107c-14 0-24.9-3.9-32.8-11.6s-11.8-18.6-11.8-32.8c0-14.5 3.6-25.8 10.9-33.7s17.3-11.9 30.2-11.9c12.3 0 21.8 3.5 28.6 10.5s10.2 16.6 10.2 29v11.5h-56c.3 6.7 2.3 12 6 15.8s9 5.7 15.7 5.7c5.2 0 10.2-.5 14.8-1.6 4.7-1.1 9.5-2.8 14.6-5.2v18.3c-4.1 2.1-8.6 3.6-13.3 4.6-4.6.9-10.3 1.4-17.1 1.4zm-3.4-73.1c-5 0-9 1.6-11.8 4.8s-4.5 7.7-4.9 13.5h33.2c-.1-5.8-1.6-10.4-4.6-13.5-2.9-3.2-6.8-4.8-11.9-4.8z"/><path d="m815.37272396 222.41964107h-20.5v69h-23.7v-69h-13v-11.4l13-6.4v-6.4c0-9.9 2.4-17.1 7.3-21.7s12.7-6.8 23.4-6.8c8.2 0 15.4 1.2 21.8 3.6l-6.1 17.4c-4.8-1.5-9.2-2.3-13.2-2.3-3.4 0-5.8 1-7.3 3s-2.3 4.5-2.3 7.6v5.4h20.5v18z"/><path d="m461.17272396 199.71964107s26.1-45.3 83.1-54.1c0 0 3.7-22.4-38.3-9.3-14.4 4.5-36.9 16.1-49.4 34.4 0 0-5.2-2.6-6.2-4.3-4.8-8.2 3.2-37.7 3.2-37.7s-24.6-7.4-35.3 13c-.1.1 35.4 54.2 42.9 58z"/><path d="m429.57272396 168.41964107s-60.7 9.4-65.6-48.5c0 0-1.2-39.5 55.5-37.3 0 0 59.3-1.8 87.7-13.3 3.4-1.4 12.9.4-1.2 14.8 0 0 25.7 6.8 33.3-12.1 3.9-9.5 3.2-39-29.3-28.8 0 0-28.6 14.1-33.9 22.1 0 0-17.8-19.6-34.4-5.5 0 0-15.1 15-20.4 12.5-3.8-1.8-3.8-6.1 4.1-16.5 0 0 21.3-21.9 54.5-10.8.7.3-.7-.3 0 0 0 0 40.1-46.2 65.6.2 6.5 11.8 13.1 43.9-17.3 51 0 0-13.6.8-10.5 10.1 0 0 12.7 13.7 9.5 17.6-1.7 2-5.3 3.7-9.5-1.7l-23.1-25s-29.6 2-72.4 1.7c0 0-51.4-5.6-35.2 40.3 0 0 4.4 16.5 31.2 20.7 0 .1 18.2 3.9 11.4 8.5z"/><path d="m441.67272396 59.81964107s-15.4 16-20.4 12.5c-1.5-1-6.9-5.5 4.1-16.5"/></g><g fill="#231f20"><path d="m69.37272396 349.41964107c0 6-1.5 10.7-4.5 14.1s-7.3 5-12.8 5c-5.6 0-9.9-1.7-12.9-5s-4.5-8.1-4.5-14.2 1.5-10.8 4.5-14.1 7.3-4.9 12.9-4.9c5.5 0 9.8 1.7 12.8 5s4.5 8 4.5 14.1zm-28.3 0c0 4.6.9 8 2.8 10.4 1.8 2.4 4.6 3.5 8.2 3.5s6.3-1.2 8.2-3.5c1.8-2.3 2.8-5.8 2.8-10.4s-.9-8-2.7-10.4-4.5-3.5-8.1-3.5-6.4 1.2-8.2 3.5-3 5.8-3 10.4z"/><path d="m91.97272396 339.41964107c1.2 0 2.2.1 3 .3l-.6 5.6c-.8-.2-1.7-.3-2.6-.3-2.4 0-4.3.8-5.8 2.3-1.5 1.6-2.2 3.6-2.2 6.1v14.7h-6v-28.1h4.7l.8 5h.3c.9-1.7 2.1-3 3.6-4s3.1-1.6 4.8-1.6z"/><path d="m110.67272396 368.51964107c-3.5 0-6.2-1.3-8.2-3.8s-2.9-6.1-2.9-10.7 1-8.2 3-10.8 4.7-3.8 8.3-3.8c3.7 0 6.5 1.4 8.4 4.1h.3c-.3-2-.4-3.6-.4-4.8v-10.2h6v39.5h-4.7l-1-3.7h-.3c-2 2.8-4.8 4.2-8.5 4.2zm1.6-4.8c2.5 0 4.2-.7 5.4-2.1s1.7-3.6 1.7-6.7v-.8c0-3.5-.6-6.1-1.7-7.5-1.2-1.5-3-2.2-5.4-2.2-2.1 0-3.7.9-4.8 2.6s-1.7 4.1-1.7 7.3c0 3.1.5 5.5 1.7 7.1.9 1.4 2.6 2.3 4.8 2.3z"/><path d="m146.87272396 368.51964107c-4.4 0-7.8-1.3-10.2-3.8s-3.7-6.1-3.7-10.5c0-4.6 1.1-8.2 3.4-10.8s5.4-3.9 9.4-3.9c3.7 0 6.6 1.1 8.8 3.4 2.1 2.3 3.2 5.3 3.2 9.3v3.2h-18.7c.1 2.7.8 4.8 2.2 6.3s3.3 2.2 5.9 2.2c1.7 0 3.2-.2 4.6-.5s3-.8 4.6-1.6v4.8c-1.5.7-2.9 1.2-4.4 1.5-1.5.2-3.2.4-5.1.4zm-1.1-24.6c-1.9 0-3.4.6-4.6 1.8s-1.8 3-2 5.3h12.7c0-2.3-.6-4.1-1.7-5.3-1-1.2-2.5-1.8-4.4-1.8z"/><path d="m179.87272396 339.41964107c1.2 0 2.2.1 3 .3l-.6 5.6c-.8-.2-1.7-.3-2.6-.3-2.4 0-4.3.8-5.8 2.3-1.5 1.6-2.2 3.6-2.2 6.1v14.7h-6v-28.1h4.7l.8 5h.3c.9-1.7 2.1-3 3.6-4s3.1-1.6 4.8-1.6z"/><path d="m217.77272396 344.41964107h-6.9v23.6h-6v-23.6h-4.6v-2.8l4.6-1.8v-1.8c0-3.3.8-5.8 2.3-7.4 1.6-1.6 3.9-2.4 7.1-2.4 2.1 0 4.2.3 6.2 1l-1.6 4.5c-1.5-.5-2.9-.7-4.2-.7-1.4 0-2.3.4-3 1.3-.6.8-.9 2.1-.9 3.8v1.8h6.9v4.5z"/><path d="m248.47272396 353.91964107c0 4.6-1.2 8.2-3.5 10.7-2.4 2.6-5.6 3.9-9.8 3.9-2.6 0-4.9-.6-7-1.8-2-1.2-3.6-2.9-4.6-5.1-1.1-2.2-1.6-4.8-1.6-7.7 0-4.6 1.2-8.1 3.5-10.7s5.6-3.8 9.9-3.8c4.1 0 7.3 1.3 9.6 3.9s3.5 6.1 3.5 10.6zm-20.5 0c0 6.5 2.4 9.7 7.2 9.7 4.7 0 7.1-3.2 7.1-9.7 0-6.4-2.4-9.6-7.2-9.6-2.5 0-4.3.8-5.4 2.5-1.1 1.6-1.7 4-1.7 7.1z"/><path d="m281.27272396 353.91964107c0 4.6-1.2 8.2-3.5 10.7-2.4 2.6-5.6 3.9-9.8 3.9-2.6 0-4.9-.6-7-1.8-2-1.2-3.6-2.9-4.6-5.1-1.1-2.2-1.6-4.8-1.6-7.7 0-4.6 1.2-8.1 3.5-10.7s5.6-3.8 9.9-3.8c4.1 0 7.3 1.3 9.6 3.9s3.5 6.1 3.5 10.6zm-20.4 0c0 6.5 2.4 9.7 7.2 9.7 4.7 0 7.1-3.2 7.1-9.7 0-6.4-2.4-9.6-7.2-9.6-2.5 0-4.3.8-5.4 2.5-1.2 1.6-1.7 4-1.7 7.1z"/><path d="m298.67272396 368.51964107c-3.5 0-6.2-1.3-8.2-3.8s-2.9-6.1-2.9-10.7 1-8.2 3-10.8 4.7-3.8 8.3-3.8c3.7 0 6.5 1.4 8.4 4.1h.3c-.3-2-.4-3.6-.4-4.8v-10.2h6v39.5h-4.7l-1-3.7h-.3c-2.1 2.8-4.9 4.2-8.5 4.2zm1.6-4.8c2.5 0 4.2-.7 5.4-2.1s1.7-3.6 1.7-6.7v-.8c0-3.5-.6-6.1-1.7-7.5-1.2-1.5-3-2.2-5.4-2.2-2.1 0-3.7.9-4.8 2.6s-1.7 4.1-1.7 7.3c0 3.1.5 5.5 1.7 7.1.9 1.4 2.6 2.3 4.8 2.3z"/><path d="m351.27272396 344.41964107h-6.9v23.6h-6v-23.6h-4.6v-2.8l4.6-1.8v-1.8c0-3.3.8-5.8 2.3-7.4 1.6-1.6 3.9-2.4 7.1-2.4 2.1 0 4.2.3 6.2 1l-1.6 4.5c-1.5-.5-2.9-.7-4.2-.7-1.4 0-2.3.4-3 1.3-.6.8-.9 2.1-.9 3.8v1.8h6.9v4.5z"/><path d="m371.27272396 339.41964107c1.2 0 2.2.1 3 .3l-.6 5.6c-.8-.2-1.7-.3-2.6-.3-2.4 0-4.3.8-5.8 2.3-1.5 1.6-2.2 3.6-2.2 6.1v14.7h-6v-28.1h4.7l.8 5h.3c.9-1.7 2.1-3 3.6-4s3.1-1.6 4.8-1.6z"/><path d="m405.37272396 353.91964107c0 4.6-1.2 8.2-3.5 10.7-2.4 2.6-5.6 3.9-9.8 3.9-2.6 0-4.9-.6-7-1.8-2-1.2-3.6-2.9-4.6-5.1-1.1-2.2-1.6-4.8-1.6-7.7 0-4.6 1.2-8.1 3.5-10.7s5.6-3.8 9.9-3.8c4.1 0 7.3 1.3 9.6 3.9 2.4 2.6 3.5 6.1 3.5 10.6zm-20.4 0c0 6.5 2.4 9.7 7.2 9.7 4.7 0 7.1-3.2 7.1-9.7 0-6.4-2.4-9.6-7.2-9.6-2.5 0-4.3.8-5.4 2.5-1.1 1.6-1.7 4-1.7 7.1z"/><path d="m436.97272396 368.01964107h-6v-17.3c0-2.1-.4-3.8-1.2-4.8s-2.1-1.6-3.8-1.6c-2.3 0-4 .7-5.1 2.2s-1.6 4-1.6 7.5v14h-6v-28.1h4.7l.8 3.7h.3c.8-1.3 1.9-2.4 3.4-3.1s3.1-1.1 4.9-1.1c4.3 0 7.2 1.5 8.6 4.4h.4c.8-1.4 2-2.5 3.5-3.2s3.2-1.2 5.2-1.2c3.4 0 5.8.8 7.3 2.5s2.3 4.3 2.3 7.7v18.3h-6v-17.3c0-2.1-.4-3.8-1.2-4.8s-2.1-1.6-3.8-1.6c-2.3 0-4 .7-5.1 2.2s-1.6 3.7-1.6 6.7z"/><path d="m489.07272396 363.71964107c1.5 0 2.9-.2 4.4-.7v4.5c-.7.3-1.5.5-2.6.7s-2.1.3-3.2.3c-5.7 0-8.5-3-8.5-8.9v-15.1h-3.8v-2.6l4.1-2.2 2-5.9h3.7v6.2h8v4.5h-8v15c0 1.4.4 2.5 1.1 3.2s1.6 1 2.8 1z"/><path d="m514.37272396 339.41964107c1.2 0 2.2.1 3 .3l-.6 5.6c-.8-.2-1.7-.3-2.6-.3-2.4 0-4.3.8-5.8 2.3s-2.2 3.6-2.2 6.1v14.7h-6v-28.1h4.7l.8 5h.3c.9-1.7 2.1-3 3.6-4s3-1.6 4.8-1.6z"/><path d="m543.37272396 368.01964107-.8-3.7h-.3c-.8 1.3-2 2.3-3.5 3.1s-3.3 1.1-5.2 1.1c-3.4 0-5.9-.8-7.6-2.5s-2.5-4.3-2.5-7.7v-18.4h6v17.3c0 2.1.4 3.8 1.3 4.8s2.3 1.6 4.1 1.6c2.5 0 4.3-.7 5.5-2.2s1.8-4 1.8-7.5v-14h6v28.1z"/><path d="m576.47272396 360.01964107c0 2.7-1 4.8-3 6.3s-4.9 2.2-8.6 2.2-6.7-.6-9-1.7v-5.2c3.3 1.5 6.4 2.3 9.2 2.3 3.7 0 5.5-1.1 5.5-3.3 0-.7-.2-1.3-.6-1.8s-1.1-1-2-1.5-2.2-1.1-3.9-1.7c-3.2-1.3-5.4-2.5-6.6-3.8s-1.7-2.9-1.7-4.9c0-2.4 1-4.3 2.9-5.6s4.6-2 7.9-2 6.4.7 9.4 2l-1.9 4.5c-3-1.3-5.6-1.9-7.6-1.9-3.1 0-4.7.9-4.7 2.7 0 .9.4 1.6 1.2 2.2s2.6 1.4 5.4 2.5c2.3.9 4 1.7 5.1 2.5 1 .7 1.8 1.6 2.3 2.6s.7 2.2.7 3.6z"/><path d="m594.37272396 363.71964107c1.5 0 2.9-.2 4.4-.7v4.5c-.7.3-1.5.5-2.6.7s-2.1.3-3.2.3c-5.7 0-8.5-3-8.5-8.9v-15.1h-3.8v-2.6l4.1-2.2 2-5.9h3.7v6.2h8v4.5h-8v15c0 1.4.4 2.5 1.1 3.2.7.6 1.7 1 2.8 1z"/><path d="m617.67272396 368.51964107c-4.4 0-7.8-1.3-10.2-3.8s-3.7-6.1-3.7-10.5c0-4.6 1.1-8.2 3.4-10.8s5.4-3.9 9.4-3.9c3.7 0 6.6 1.1 8.8 3.4 2.1 2.3 3.2 5.3 3.2 9.3v3.2h-18.7c.1 2.7.8 4.8 2.2 6.3s3.3 2.2 5.9 2.2c1.7 0 3.2-.2 4.6-.5s3-.8 4.6-1.6v4.8c-1.5.7-2.9 1.2-4.4 1.5-1.5.2-3.2.4-5.1.4zm-1.1-24.6c-1.9 0-3.4.6-4.6 1.8s-1.8 3-2 5.3h12.7c0-2.3-.6-4.1-1.7-5.3-1-1.2-2.5-1.8-4.4-1.8z"/><path d="m645.87272396 368.51964107c-3.5 0-6.2-1.3-8.2-3.8s-2.9-6.1-2.9-10.7 1-8.2 3-10.8 4.7-3.8 8.3-3.8c3.7 0 6.5 1.4 8.4 4.1h.3c-.3-2-.4-3.6-.4-4.8v-10.2h6v39.5h-4.7l-1-3.7h-.3c-2 2.8-4.8 4.2-8.5 4.2zm1.6-4.8c2.5 0 4.2-.7 5.4-2.1s1.7-3.6 1.7-6.7v-.8c0-3.5-.6-6.1-1.7-7.5-1.2-1.5-3-2.2-5.4-2.2-2.1 0-3.7.9-4.8 2.6s-1.7 4.1-1.7 7.3c0 3.1.5 5.5 1.7 7.1 1 1.4 2.6 2.3 4.8 2.3z"/><path d="m695.77272396 368.51964107c-4.2 0-7.5-1.2-9.7-3.7s-3.3-6-3.3-10.7 1.2-8.4 3.5-10.9 5.6-3.8 10-3.8c3 0 5.6.5 8 1.7l-1.8 4.8c-2.5-1-4.6-1.5-6.2-1.5-4.9 0-7.3 3.2-7.3 9.7 0 3.1.6 5.5 1.8 7.1s3 2.4 5.3 2.4c2.7 0 5.2-.7 7.5-2v5.2c-1.1.6-2.2 1.1-3.4 1.3s-2.7.4-4.4.4z"/><path d="m735.87272396 368.01964107h-6v-17.3c0-2.2-.4-3.8-1.3-4.8-.9-1.1-2.3-1.6-4.2-1.6-2.5 0-4.3.7-5.5 2.2s-1.8 4-1.8 7.5v13.9h-6v-39.5h6v10c0 1.6-.1 3.3-.3 5.2h.4c.8-1.4 1.9-2.4 3.4-3.1s3.1-1.1 5.1-1.1c6.8 0 10.2 3.4 10.2 10.3z"/><path d="m757.47272396 368.51964107c-4.4 0-7.8-1.3-10.2-3.8s-3.7-6.1-3.7-10.5c0-4.6 1.1-8.2 3.4-10.8s5.4-3.9 9.4-3.9c3.7 0 6.6 1.1 8.8 3.4s3.2 5.3 3.2 9.3v3.2h-18.7c.1 2.7.8 4.8 2.2 6.3s3.3 2.2 5.9 2.2c1.7 0 3.2-.2 4.6-.5s3-.8 4.6-1.6v4.8c-1.5.7-2.9 1.2-4.4 1.5s-3.1.4-5.1.4zm-1-24.6c-1.9 0-3.4.6-4.6 1.8s-1.8 3-2 5.3h12.7c0-2.3-.6-4.1-1.7-5.3s-2.5-1.8-4.4-1.8z"/><path d="m790.37272396 344.41964107h-6.9v23.6h-6v-23.6h-4.6v-2.8l4.6-1.8v-1.8c0-3.3.8-5.8 2.3-7.4s3.9-2.4 7.1-2.4c2.1 0 4.2.3 6.2 1l-1.6 4.5c-1.5-.5-2.9-.7-4.2-.7-1.4 0-2.3.4-3 1.3s-.9 2.1-.9 3.8v1.8h6.9v4.5z"/><path d="m815.07272396 360.01964107c0 2.7-1 4.8-3 6.3s-4.9 2.2-8.6 2.2-6.7-.6-9-1.7v-5.2c3.3 1.5 6.4 2.3 9.2 2.3 3.7 0 5.5-1.1 5.5-3.3 0-.7-.2-1.3-.6-1.8s-1.1-1-2-1.5-2.2-1.1-3.9-1.7c-3.2-1.3-5.4-2.5-6.6-3.8s-1.7-2.9-1.7-4.9c0-2.4 1-4.3 2.9-5.6s4.6-2 7.9-2 6.4.7 9.4 2l-1.9 4.5c-3-1.3-5.6-1.9-7.6-1.9-3.1 0-4.7.9-4.7 2.7 0 .9.4 1.6 1.2 2.2s2.6 1.4 5.4 2.5c2.3.9 4 1.7 5.1 2.5s1.8 1.6 2.3 2.6.7 2.2.7 3.6z"/></g></svg>